<svg xmlns="http://www.w3.org/2000/svg" viewBox="0 0 32 32" fill="none">
  <rect width="32" height="32" rx="8" fill="#0d9488"/>
  <path d="M16 6c-3.314 0-6 2.686-6 6v1c0 .552.448 1 1 1h1v-2c0-2.21 1.79-4 4-4s4 1.79 4 4v2h1c.552 0 1-.448 1-1v-1c0-3.314-2.686-6-6-6z" fill="#ffffff"/>
  <circle cx="12" cy="18" r="2" fill="#ffffff"/>
  <circle cx="20" cy="18" r="2" fill="#ffffff"/>
  <path d="M12 20v4c0 1.105.895 2 2 2h4c1.105 0 2-.895 2-2v-4" stroke="#ffffff" stroke-width="1.5" stroke-linecap="round"/>
  <path d="M16 20v3" stroke="#ffffff" stroke-width="1.5" stroke-linecap="round"/>
</svg>
