<svg xmlns="http://www.w3.org/2000/svg" viewBox="0 0 512 512" fill="none">
  <rect width="512" height="512" rx="96" fill="#0d9488"/>
  <path d="M256 96c-53.02 0-96 42.98-96 96v16c0 8.837 7.163 16 16 16h16v-32c0-35.346 28.654-64 64-64s64 28.654 64 64v32h16c8.837 0 16-7.163 16-16v-16c0-53.02-42.98-96-96-96z" fill="#ffffff"/>
  <circle cx="192" cy="288" r="32" fill="#ffffff"/>
  <circle cx="320" cy="288" r="32" fill="#ffffff"/>
  <path d="M192 320v64c0 17.673 14.327 32 32 32h64c17.673 0 32-14.327 32-32v-64" stroke="#ffffff" stroke-width="20" stroke-linecap="round"/>
  <path d="M256 320v48" stroke="#ffffff" stroke-width="20" stroke-linecap="round"/>
</svg>
